<mxfile host="Electron" modified="2023-08-20T14:56:50.882Z" agent="Mozilla/5.0 (Windows NT 10.0; Win64; x64) AppleWebKit/537.36 (KHTML, like Gecko) draw.io/21.6.8 Chrome/114.0.5735.289 Electron/25.5.0 Safari/537.36" etag="gjDij_mx2qiB3bCy9CF3" version="21.6.8" type="device" pages="6">
  <diagram name="17.12" id="tYshBl9IRpjgA8n6lq3Q">
    <mxGraphModel dx="880" dy="545" grid="1" gridSize="10" guides="1" tooltips="1" connect="1" arrows="1" fold="1" page="1" pageScale="1" pageWidth="1169" pageHeight="827" math="0" shadow="0">
      <root>
        <mxCell id="0" />
        <mxCell id="1" parent="0" />
        <mxCell id="cszbzwle9iXsaJjfLlb7-1" value="&lt;b&gt;sd&lt;/b&gt; CriticalRegion" style="shape=umlFrame;whiteSpace=wrap;html=1;pointerEvents=0;recursiveResize=0;container=1;collapsible=0;width=160;" vertex="1" parent="1">
          <mxGeometry x="10" y="10" width="550" height="350" as="geometry" />
        </mxCell>
        <mxCell id="cszbzwle9iXsaJjfLlb7-2" value=":Emergency" style="shape=umlLifeline;perimeter=lifelinePerimeter;whiteSpace=wrap;html=1;container=1;dropTarget=0;collapsible=0;recursiveResize=0;outlineConnect=0;portConstraint=eastwest;newEdgeStyle={&quot;edgeStyle&quot;:&quot;elbowEdgeStyle&quot;,&quot;elbow&quot;:&quot;vertical&quot;,&quot;curved&quot;:0,&quot;rounded&quot;:0};size=40;" vertex="1" parent="cszbzwle9iXsaJjfLlb7-1">
          <mxGeometry x="50" y="40" width="100" height="310" as="geometry" />
        </mxCell>
        <mxCell id="cszbzwle9iXsaJjfLlb7-3" style="edgeStyle=elbowEdgeStyle;shape=connector;curved=0;rounded=0;orthogonalLoop=1;jettySize=auto;elbow=vertical;html=1;labelBackgroundColor=default;strokeColor=default;fontFamily=Helvetica;fontSize=11;fontColor=default;endArrow=openThin;endFill=0;endSize=12;" edge="1" parent="cszbzwle9iXsaJjfLlb7-1">
          <mxGeometry relative="1" as="geometry">
            <mxPoint x="219.5" y="300" as="sourcePoint" />
            <mxPoint x="99.5" y="300" as="targetPoint" />
          </mxGeometry>
        </mxCell>
        <mxCell id="cszbzwle9iXsaJjfLlb7-4" value="call(911)" style="edgeLabel;html=1;align=center;verticalAlign=middle;resizable=0;points=[];fontSize=11;fontFamily=Helvetica;fontColor=default;" vertex="1" connectable="0" parent="cszbzwle9iXsaJjfLlb7-3">
          <mxGeometry x="-0.2083" y="1" relative="1" as="geometry">
            <mxPoint x="-8" y="-12" as="offset" />
          </mxGeometry>
        </mxCell>
        <mxCell id="cszbzwle9iXsaJjfLlb7-5" value=":Operator" style="shape=umlLifeline;perimeter=lifelinePerimeter;whiteSpace=wrap;html=1;container=1;dropTarget=0;collapsible=0;recursiveResize=0;outlineConnect=0;portConstraint=eastwest;newEdgeStyle={&quot;edgeStyle&quot;:&quot;elbowEdgeStyle&quot;,&quot;elbow&quot;:&quot;vertical&quot;,&quot;curved&quot;:0,&quot;rounded&quot;:0};size=40;" vertex="1" parent="cszbzwle9iXsaJjfLlb7-1">
          <mxGeometry x="170" y="40" width="100" height="310" as="geometry" />
        </mxCell>
        <mxCell id="cszbzwle9iXsaJjfLlb7-6" value="critical" style="shape=umlFrame;whiteSpace=wrap;html=1;pointerEvents=0;recursiveResize=0;container=1;collapsible=0;width=60;fontFamily=Helvetica;fontSize=11;fontColor=default;fontStyle=1;height=20;" vertex="1" parent="cszbzwle9iXsaJjfLlb7-1">
          <mxGeometry x="50" y="250" width="210" height="60" as="geometry" />
        </mxCell>
        <mxCell id="cszbzwle9iXsaJjfLlb7-7" value="par" style="shape=umlFrame;whiteSpace=wrap;html=1;pointerEvents=0;recursiveResize=0;container=1;collapsible=0;width=60;fontFamily=Helvetica;fontSize=11;fontColor=default;fontStyle=1;height=20;gradientColor=none;swimlaneFillColor=none;" vertex="1" parent="cszbzwle9iXsaJjfLlb7-1">
          <mxGeometry x="20" y="90" width="510" height="240" as="geometry" />
        </mxCell>
        <mxCell id="cszbzwle9iXsaJjfLlb7-8" style="edgeStyle=elbowEdgeStyle;rounded=0;orthogonalLoop=1;jettySize=auto;html=1;elbow=vertical;curved=0;endArrow=openThin;endFill=0;endSize=12;" edge="1" parent="1">
          <mxGeometry relative="1" as="geometry">
            <mxPoint x="349.5" y="130" as="sourcePoint" />
            <mxPoint x="229.5" y="130" as="targetPoint" />
          </mxGeometry>
        </mxCell>
        <mxCell id="cszbzwle9iXsaJjfLlb7-9" value="call(100)" style="edgeLabel;html=1;align=center;verticalAlign=middle;resizable=0;points=[];" vertex="1" connectable="0" parent="cszbzwle9iXsaJjfLlb7-8">
          <mxGeometry x="0.3083" y="-1" relative="1" as="geometry">
            <mxPoint x="19" y="-9" as="offset" />
          </mxGeometry>
        </mxCell>
        <mxCell id="cszbzwle9iXsaJjfLlb7-10" value=":Caller" style="shape=umlLifeline;perimeter=lifelinePerimeter;whiteSpace=wrap;html=1;container=1;dropTarget=0;collapsible=0;recursiveResize=0;outlineConnect=0;portConstraint=eastwest;newEdgeStyle={&quot;edgeStyle&quot;:&quot;elbowEdgeStyle&quot;,&quot;elbow&quot;:&quot;vertical&quot;,&quot;curved&quot;:0,&quot;rounded&quot;:0};size=40;" vertex="1" parent="1">
          <mxGeometry x="300" y="50" width="100" height="310" as="geometry" />
        </mxCell>
        <mxCell id="cszbzwle9iXsaJjfLlb7-11" value=":Callee" style="shape=umlLifeline;perimeter=lifelinePerimeter;whiteSpace=wrap;html=1;container=1;dropTarget=0;collapsible=0;recursiveResize=0;outlineConnect=0;portConstraint=eastwest;newEdgeStyle={&quot;edgeStyle&quot;:&quot;elbowEdgeStyle&quot;,&quot;elbow&quot;:&quot;vertical&quot;,&quot;curved&quot;:0,&quot;rounded&quot;:0};size=40;" vertex="1" parent="1">
          <mxGeometry x="420" y="50" width="100" height="310" as="geometry" />
        </mxCell>
        <mxCell id="cszbzwle9iXsaJjfLlb7-12" value="&lt;b&gt;Figure 17.12 Critical Region&lt;/b&gt;" style="text;html=1;align=left;verticalAlign=middle;resizable=0;points=[];autosize=1;strokeColor=none;fillColor=none;fontSize=11;fontFamily=Helvetica;fontColor=default;" vertex="1" parent="1">
          <mxGeometry x="10" y="360" width="170" height="30" as="geometry" />
        </mxCell>
        <mxCell id="cszbzwle9iXsaJjfLlb7-13" style="edgeStyle=elbowEdgeStyle;rounded=0;orthogonalLoop=1;jettySize=auto;html=1;elbow=vertical;curved=0;endArrow=openThin;endFill=0;endSize=12;" edge="1" parent="1">
          <mxGeometry relative="1" as="geometry">
            <mxPoint x="229.5" y="159" as="sourcePoint" />
            <mxPoint x="469.5" y="159" as="targetPoint" />
          </mxGeometry>
        </mxCell>
        <mxCell id="cszbzwle9iXsaJjfLlb7-14" value="call(100)" style="edgeLabel;html=1;align=center;verticalAlign=middle;resizable=0;points=[];fontSize=11;fontFamily=Helvetica;fontColor=default;" vertex="1" connectable="0" parent="cszbzwle9iXsaJjfLlb7-13">
          <mxGeometry x="-0.5208" y="2" relative="1" as="geometry">
            <mxPoint x="18" y="-7" as="offset" />
          </mxGeometry>
        </mxCell>
        <mxCell id="cszbzwle9iXsaJjfLlb7-15" style="edgeStyle=elbowEdgeStyle;rounded=0;orthogonalLoop=1;jettySize=auto;html=1;elbow=vertical;curved=0;endArrow=openThin;endFill=0;endSize=12;" edge="1" parent="1">
          <mxGeometry relative="1" as="geometry">
            <mxPoint x="349.5" y="200" as="sourcePoint" />
            <mxPoint x="229.5" y="200" as="targetPoint" />
          </mxGeometry>
        </mxCell>
        <mxCell id="cszbzwle9iXsaJjfLlb7-16" value="call(101)" style="edgeLabel;html=1;align=center;verticalAlign=middle;resizable=0;points=[];" vertex="1" connectable="0" parent="cszbzwle9iXsaJjfLlb7-15">
          <mxGeometry x="0.3083" y="-1" relative="1" as="geometry">
            <mxPoint x="19" y="-9" as="offset" />
          </mxGeometry>
        </mxCell>
        <mxCell id="cszbzwle9iXsaJjfLlb7-17" style="edgeStyle=elbowEdgeStyle;rounded=0;orthogonalLoop=1;jettySize=auto;html=1;elbow=vertical;curved=0;endArrow=openThin;endFill=0;endSize=12;" edge="1" parent="1">
          <mxGeometry relative="1" as="geometry">
            <mxPoint x="229.5" y="229" as="sourcePoint" />
            <mxPoint x="469.5" y="229" as="targetPoint" />
          </mxGeometry>
        </mxCell>
        <mxCell id="cszbzwle9iXsaJjfLlb7-18" value="call(101)" style="edgeLabel;html=1;align=center;verticalAlign=middle;resizable=0;points=[];fontSize=11;fontFamily=Helvetica;fontColor=default;" vertex="1" connectable="0" parent="cszbzwle9iXsaJjfLlb7-17">
          <mxGeometry x="-0.5208" y="2" relative="1" as="geometry">
            <mxPoint x="18" y="-7" as="offset" />
          </mxGeometry>
        </mxCell>
        <mxCell id="cszbzwle9iXsaJjfLlb7-19" style="edgeStyle=elbowEdgeStyle;rounded=0;orthogonalLoop=1;jettySize=auto;html=1;elbow=vertical;curved=0;endArrow=openThin;endFill=0;endSize=12;" edge="1" parent="1">
          <mxGeometry relative="1" as="geometry">
            <mxPoint x="349.5" y="280" as="sourcePoint" />
            <mxPoint x="229.5" y="280" as="targetPoint" />
          </mxGeometry>
        </mxCell>
        <mxCell id="cszbzwle9iXsaJjfLlb7-20" value="call(911)" style="edgeLabel;html=1;align=center;verticalAlign=middle;resizable=0;points=[];" vertex="1" connectable="0" parent="cszbzwle9iXsaJjfLlb7-19">
          <mxGeometry x="0.3083" y="-1" relative="1" as="geometry">
            <mxPoint x="19" y="-9" as="offset" />
          </mxGeometry>
        </mxCell>
        <mxCell id="cszbzwle9iXsaJjfLlb7-21" value="" style="edgeStyle=none;orthogonalLoop=1;jettySize=auto;html=1;rounded=0;labelBackgroundColor=default;strokeColor=default;fontFamily=Helvetica;fontSize=11;fontColor=default;endArrow=none;endFill=0;endSize=12;shape=connector;curved=0;elbow=vertical;dashed=1;dashPattern=8 8;" edge="1" parent="1">
          <mxGeometry width="100" relative="1" as="geometry">
            <mxPoint x="30" y="170" as="sourcePoint" />
            <mxPoint x="540" y="170" as="targetPoint" />
            <Array as="points" />
          </mxGeometry>
        </mxCell>
        <mxCell id="cszbzwle9iXsaJjfLlb7-22" value="" style="edgeStyle=none;orthogonalLoop=1;jettySize=auto;html=1;rounded=0;labelBackgroundColor=default;strokeColor=default;fontFamily=Helvetica;fontSize=11;fontColor=default;endArrow=none;endFill=0;endSize=12;shape=connector;curved=0;elbow=vertical;dashed=1;dashPattern=8 8;" edge="1" parent="1">
          <mxGeometry width="100" relative="1" as="geometry">
            <mxPoint x="30" y="250" as="sourcePoint" />
            <mxPoint x="540" y="250" as="targetPoint" />
            <Array as="points" />
          </mxGeometry>
        </mxCell>
      </root>
    </mxGraphModel>
  </diagram>
  <diagram id="pn1VwmurqFld0CVCLVZq" name="17.13">
    <mxGraphModel dx="880" dy="545" grid="1" gridSize="10" guides="1" tooltips="1" connect="1" arrows="1" fold="1" page="1" pageScale="1" pageWidth="1169" pageHeight="827" math="0" shadow="0">
      <root>
        <mxCell id="0" />
        <mxCell id="1" parent="0" />
        <mxCell id="XSAeii5J-7EqOomZu63U-1" value="&lt;b style=&quot;font-size: 12px;&quot;&gt;sd&lt;/b&gt; loopExample" style="shape=umlFrame;whiteSpace=wrap;html=1;pointerEvents=0;recursiveResize=0;container=1;collapsible=0;width=160;fontFamily=Helvetica;fontSize=12;fontColor=default;" vertex="1" parent="1">
          <mxGeometry x="10" y="10" width="340" height="400" as="geometry" />
        </mxCell>
        <mxCell id="FwR-NDcu5jFl3miAeHVa-3" style="edgeStyle=elbowEdgeStyle;shape=connector;curved=0;rounded=0;orthogonalLoop=1;jettySize=auto;elbow=vertical;html=1;labelBackgroundColor=default;strokeColor=default;fontFamily=Helvetica;fontSize=11;fontColor=default;endArrow=openThin;endFill=0;endSize=12;" edge="1" parent="XSAeii5J-7EqOomZu63U-1">
          <mxGeometry relative="1" as="geometry">
            <mxPoint x="54.5" y="120" as="sourcePoint" />
            <mxPoint x="249.5" y="120" as="targetPoint" />
          </mxGeometry>
        </mxCell>
        <mxCell id="FwR-NDcu5jFl3miAeHVa-4" value="InsertCard" style="edgeLabel;html=1;align=center;verticalAlign=middle;resizable=0;points=[];fontSize=11;fontFamily=Helvetica;fontColor=default;" vertex="1" connectable="0" parent="FwR-NDcu5jFl3miAeHVa-3">
          <mxGeometry x="-0.2974" y="2" relative="1" as="geometry">
            <mxPoint x="20" y="-10" as="offset" />
          </mxGeometry>
        </mxCell>
        <mxCell id="FwR-NDcu5jFl3miAeHVa-7" style="edgeStyle=elbowEdgeStyle;shape=connector;curved=0;rounded=0;orthogonalLoop=1;jettySize=auto;elbow=vertical;html=1;labelBackgroundColor=default;strokeColor=default;fontFamily=Helvetica;fontSize=11;fontColor=default;endArrow=openThin;endFill=0;endSize=12;" edge="1" parent="XSAeii5J-7EqOomZu63U-1">
          <mxGeometry relative="1" as="geometry">
            <mxPoint x="54.5" y="230" as="sourcePoint" />
            <mxPoint x="249.5" y="230" as="targetPoint" />
          </mxGeometry>
        </mxCell>
        <mxCell id="FwR-NDcu5jFl3miAeHVa-8" value="Digit" style="edgeLabel;html=1;align=center;verticalAlign=middle;resizable=0;points=[];fontSize=11;fontFamily=Helvetica;fontColor=default;" vertex="1" connectable="0" parent="FwR-NDcu5jFl3miAeHVa-7">
          <mxGeometry x="-0.0103" y="1" relative="1" as="geometry">
            <mxPoint x="1" y="-10" as="offset" />
          </mxGeometry>
        </mxCell>
        <mxCell id="FwR-NDcu5jFl3miAeHVa-1" value="person" style="shape=umlLifeline;perimeter=lifelinePerimeter;whiteSpace=wrap;html=1;container=1;dropTarget=0;collapsible=0;recursiveResize=0;outlineConnect=0;portConstraint=eastwest;newEdgeStyle={&quot;edgeStyle&quot;:&quot;elbowEdgeStyle&quot;,&quot;elbow&quot;:&quot;vertical&quot;,&quot;curved&quot;:0,&quot;rounded&quot;:0};fontFamily=Helvetica;fontSize=11;fontColor=default;" vertex="1" parent="XSAeii5J-7EqOomZu63U-1">
          <mxGeometry x="20" y="50" width="70" height="350" as="geometry" />
        </mxCell>
        <mxCell id="FwR-NDcu5jFl3miAeHVa-5" style="edgeStyle=elbowEdgeStyle;shape=connector;curved=0;rounded=0;orthogonalLoop=1;jettySize=auto;elbow=horizontal;html=1;labelBackgroundColor=default;strokeColor=default;fontFamily=Helvetica;fontSize=11;fontColor=default;endArrow=openThin;endFill=0;endSize=12;" edge="1" parent="XSAeii5J-7EqOomZu63U-1">
          <mxGeometry relative="1" as="geometry">
            <mxPoint x="249.5" y="160" as="sourcePoint" />
            <mxPoint x="54.5" y="160" as="targetPoint" />
          </mxGeometry>
        </mxCell>
        <mxCell id="FwR-NDcu5jFl3miAeHVa-6" value="GivePin" style="edgeLabel;html=1;align=center;verticalAlign=middle;resizable=0;points=[];fontSize=11;fontFamily=Helvetica;fontColor=default;" vertex="1" connectable="0" parent="FwR-NDcu5jFl3miAeHVa-5">
          <mxGeometry x="0.2154" relative="1" as="geometry">
            <mxPoint x="16" y="-11" as="offset" />
          </mxGeometry>
        </mxCell>
        <mxCell id="FwR-NDcu5jFl3miAeHVa-12" style="edgeStyle=elbowEdgeStyle;shape=connector;curved=0;rounded=0;orthogonalLoop=1;jettySize=auto;elbow=horizontal;html=1;labelBackgroundColor=default;strokeColor=default;fontFamily=Helvetica;fontSize=11;fontColor=default;endArrow=openThin;endFill=0;endSize=12;" edge="1" parent="XSAeii5J-7EqOomZu63U-1">
          <mxGeometry relative="1" as="geometry">
            <mxPoint x="249.5" y="310" as="sourcePoint" />
            <mxPoint x="54.5" y="310" as="targetPoint" />
          </mxGeometry>
        </mxCell>
        <mxCell id="FwR-NDcu5jFl3miAeHVa-13" value="WrongPinTryAgain" style="edgeLabel;html=1;align=center;verticalAlign=middle;resizable=0;points=[];fontSize=11;fontFamily=Helvetica;fontColor=default;" vertex="1" connectable="0" parent="FwR-NDcu5jFl3miAeHVa-12">
          <mxGeometry x="-0.2051" y="-2" relative="1" as="geometry">
            <mxPoint x="-19" y="-10" as="offset" />
          </mxGeometry>
        </mxCell>
        <mxCell id="FwR-NDcu5jFl3miAeHVa-2" value="panel : AccessControl" style="shape=umlLifeline;perimeter=lifelinePerimeter;whiteSpace=wrap;html=1;container=1;dropTarget=0;collapsible=0;recursiveResize=0;outlineConnect=0;portConstraint=eastwest;newEdgeStyle={&quot;edgeStyle&quot;:&quot;elbowEdgeStyle&quot;,&quot;elbow&quot;:&quot;vertical&quot;,&quot;curved&quot;:0,&quot;rounded&quot;:0};fontFamily=Helvetica;fontSize=11;fontColor=default;" vertex="1" parent="XSAeii5J-7EqOomZu63U-1">
          <mxGeometry x="180" y="50" width="140" height="350" as="geometry" />
        </mxCell>
        <mxCell id="FwR-NDcu5jFl3miAeHVa-9" value="Loop(4)" style="shape=umlFrame;whiteSpace=wrap;html=1;pointerEvents=0;recursiveResize=0;container=1;collapsible=0;width=55;fontFamily=Helvetica;fontSize=11;fontColor=default;height=20;" vertex="1" parent="XSAeii5J-7EqOomZu63U-1">
          <mxGeometry x="40" y="200" width="230" height="40" as="geometry" />
        </mxCell>
        <mxCell id="FwR-NDcu5jFl3miAeHVa-14" style="edgeStyle=elbowEdgeStyle;shape=connector;curved=0;rounded=0;orthogonalLoop=1;jettySize=auto;elbow=vertical;html=1;labelBackgroundColor=default;strokeColor=default;fontFamily=Helvetica;fontSize=11;fontColor=default;endArrow=openThin;endFill=0;endSize=12;" edge="1" parent="XSAeii5J-7EqOomZu63U-1">
          <mxGeometry relative="1" as="geometry">
            <mxPoint x="54.5" y="360" as="sourcePoint" />
            <mxPoint x="249.5" y="360" as="targetPoint" />
          </mxGeometry>
        </mxCell>
        <mxCell id="FwR-NDcu5jFl3miAeHVa-15" value="Digit" style="edgeLabel;html=1;align=center;verticalAlign=middle;resizable=0;points=[];fontSize=11;fontFamily=Helvetica;fontColor=default;" vertex="1" connectable="0" parent="FwR-NDcu5jFl3miAeHVa-14">
          <mxGeometry x="-0.0103" y="1" relative="1" as="geometry">
            <mxPoint x="1" y="-10" as="offset" />
          </mxGeometry>
        </mxCell>
        <mxCell id="FwR-NDcu5jFl3miAeHVa-16" value="Loop(4)" style="shape=umlFrame;whiteSpace=wrap;html=1;pointerEvents=0;recursiveResize=0;container=1;collapsible=0;width=55;fontFamily=Helvetica;fontSize=11;fontColor=default;height=20;" vertex="1" parent="XSAeii5J-7EqOomZu63U-1">
          <mxGeometry x="40" y="330" width="230" height="40" as="geometry" />
        </mxCell>
        <mxCell id="FwR-NDcu5jFl3miAeHVa-17" value="Loop(0,2)" style="shape=umlFrame;whiteSpace=wrap;html=1;pointerEvents=0;recursiveResize=0;container=1;collapsible=0;width=70;fontFamily=Helvetica;fontSize=11;fontColor=default;height=20;" vertex="1" parent="XSAeii5J-7EqOomZu63U-1">
          <mxGeometry x="20" y="270" width="270" height="120" as="geometry" />
        </mxCell>
        <mxCell id="FwR-NDcu5jFl3miAeHVa-18" value="[wrong Pin]" style="text;html=1;align=center;verticalAlign=middle;resizable=0;points=[];autosize=1;strokeColor=none;fillColor=none;fontSize=11;fontFamily=Helvetica;fontColor=default;labelBackgroundColor=default;labelBorderColor=none;" vertex="1" parent="FwR-NDcu5jFl3miAeHVa-17">
          <mxGeometry x="190" width="80" height="30" as="geometry" />
        </mxCell>
        <mxCell id="FwR-NDcu5jFl3miAeHVa-19" value="&lt;b&gt;Figure 17.13 Loop CombinedFragment&lt;/b&gt;" style="text;html=1;align=left;verticalAlign=middle;resizable=0;points=[];autosize=1;strokeColor=none;fillColor=none;fontSize=11;fontFamily=Helvetica;fontColor=default;" vertex="1" parent="1">
          <mxGeometry x="10" y="410" width="220" height="30" as="geometry" />
        </mxCell>
      </root>
    </mxGraphModel>
  </diagram>
  <diagram id="UF_fBSAx9O5tKWxGFcbT" name="17.14">
    <mxGraphModel dx="2049" dy="545" grid="1" gridSize="10" guides="1" tooltips="1" connect="1" arrows="1" fold="1" page="1" pageScale="1" pageWidth="1169" pageHeight="827" math="0" shadow="0">
      <root>
        <mxCell id="0" />
        <mxCell id="1" parent="0" />
        <mxCell id="eUeM7UDu2hRqLlZZ38I7-1" value="&lt;b&gt;sd&lt;/b&gt; example" style="shape=umlFrame;whiteSpace=wrap;html=1;pointerEvents=0;recursiveResize=0;container=1;collapsible=0;width=90;fontFamily=Helvetica;fontSize=11;fontColor=default;height=20;" vertex="1" parent="1">
          <mxGeometry width="510" height="470" as="geometry" />
        </mxCell>
        <mxCell id="eUeM7UDu2hRqLlZZ38I7-2" value="ob1:C1" style="shape=umlLifeline;perimeter=lifelinePerimeter;whiteSpace=wrap;html=1;container=1;dropTarget=0;collapsible=0;recursiveResize=0;outlineConnect=0;portConstraint=eastwest;newEdgeStyle={&quot;edgeStyle&quot;:&quot;elbowEdgeStyle&quot;,&quot;elbow&quot;:&quot;vertical&quot;,&quot;curved&quot;:0,&quot;rounded&quot;:0};fontFamily=Helvetica;fontSize=11;fontColor=default;size=30;" vertex="1" parent="eUeM7UDu2hRqLlZZ38I7-1">
          <mxGeometry x="70" y="30" width="50" height="430" as="geometry" />
        </mxCell>
        <mxCell id="eUeM7UDu2hRqLlZZ38I7-6" style="edgeStyle=elbowEdgeStyle;shape=connector;curved=0;rounded=0;orthogonalLoop=1;jettySize=auto;elbow=horizontal;html=1;labelBackgroundColor=default;strokeColor=default;fontFamily=Helvetica;fontSize=11;fontColor=default;endArrow=openThin;endFill=0;endSize=12;" edge="1" parent="eUeM7UDu2hRqLlZZ38I7-2">
          <mxGeometry relative="1" as="geometry">
            <mxPoint x="20" y="50" as="targetPoint" />
            <mxPoint x="-70" y="50" as="sourcePoint" />
          </mxGeometry>
        </mxCell>
        <mxCell id="eUeM7UDu2hRqLlZZ38I7-7" value="opti" style="edgeLabel;html=1;align=center;verticalAlign=middle;resizable=0;points=[];fontSize=11;fontFamily=Helvetica;fontColor=default;" vertex="1" connectable="0" parent="eUeM7UDu2hRqLlZZ38I7-6">
          <mxGeometry x="-0.2444" relative="1" as="geometry">
            <mxPoint x="6" y="-12" as="offset" />
          </mxGeometry>
        </mxCell>
        <mxCell id="eUeM7UDu2hRqLlZZ38I7-3" value="" style="html=1;points=[];perimeter=orthogonalPerimeter;outlineConnect=0;targetShapes=umlLifeline;portConstraint=eastwest;newEdgeStyle={&quot;edgeStyle&quot;:&quot;elbowEdgeStyle&quot;,&quot;elbow&quot;:&quot;vertical&quot;,&quot;curved&quot;:0,&quot;rounded&quot;:0};fillColor=#808080;fontFamily=Helvetica;fontSize=11;fontColor=default;" vertex="1" parent="eUeM7UDu2hRqLlZZ38I7-2">
          <mxGeometry x="20" y="50" width="10" height="360" as="geometry" />
        </mxCell>
        <mxCell id="eUeM7UDu2hRqLlZZ38I7-8" value="alt" style="shape=umlFrame;whiteSpace=wrap;html=1;pointerEvents=0;recursiveResize=0;container=1;collapsible=0;width=40;fontFamily=Helvetica;fontSize=11;fontColor=default;height=20;" vertex="1" parent="eUeM7UDu2hRqLlZZ38I7-1">
          <mxGeometry x="20" y="100" width="470" height="320" as="geometry" />
        </mxCell>
        <mxCell id="eUeM7UDu2hRqLlZZ38I7-9" value="[x &amp;gt; 0]" style="text;align=center;html=1;fontSize=11;fontFamily=Helvetica;fontColor=default;" vertex="1" parent="eUeM7UDu2hRqLlZZ38I7-8">
          <mxGeometry width="50" height="30" relative="1" as="geometry">
            <mxPoint y="20" as="offset" />
          </mxGeometry>
        </mxCell>
        <mxCell id="eUeM7UDu2hRqLlZZ38I7-21" value="" style="shape=umlDestroy;html=1;fontFamily=Helvetica;fontSize=11;fontColor=default;fillColor=none;" vertex="1" parent="eUeM7UDu2hRqLlZZ38I7-8">
          <mxGeometry x="265" y="160" width="20" height="20" as="geometry" />
        </mxCell>
        <mxCell id="eUeM7UDu2hRqLlZZ38I7-40" value="[else]" style="text;align=center;html=1;fontSize=11;fontFamily=Helvetica;fontColor=default;" vertex="1" parent="eUeM7UDu2hRqLlZZ38I7-8">
          <mxGeometry width="50" height="30" relative="1" as="geometry">
            <mxPoint y="190" as="offset" />
          </mxGeometry>
        </mxCell>
        <mxCell id="eUeM7UDu2hRqLlZZ38I7-10" value="ob2:C2" style="shape=umlLifeline;perimeter=lifelinePerimeter;whiteSpace=wrap;html=1;container=1;dropTarget=0;collapsible=0;recursiveResize=0;outlineConnect=0;portConstraint=eastwest;newEdgeStyle={&quot;edgeStyle&quot;:&quot;elbowEdgeStyle&quot;,&quot;elbow&quot;:&quot;vertical&quot;,&quot;curved&quot;:0,&quot;rounded&quot;:0};fontFamily=Helvetica;fontSize=11;fontColor=default;size=30;" vertex="1" parent="eUeM7UDu2hRqLlZZ38I7-1">
          <mxGeometry x="270" y="110" width="50" height="160" as="geometry" />
        </mxCell>
        <mxCell id="eUeM7UDu2hRqLlZZ38I7-13" value="" style="html=1;points=[];perimeter=orthogonalPerimeter;outlineConnect=0;targetShapes=umlLifeline;portConstraint=eastwest;newEdgeStyle={&quot;edgeStyle&quot;:&quot;elbowEdgeStyle&quot;,&quot;elbow&quot;:&quot;vertical&quot;,&quot;curved&quot;:0,&quot;rounded&quot;:0};fillColor=#808080;fontFamily=Helvetica;fontSize=11;fontColor=default;" vertex="1" parent="eUeM7UDu2hRqLlZZ38I7-10">
          <mxGeometry x="20" y="50" width="10" height="90" as="geometry" />
        </mxCell>
        <mxCell id="eUeM7UDu2hRqLlZZ38I7-14" value="ob1:C1" style="shape=umlLifeline;perimeter=lifelinePerimeter;whiteSpace=wrap;html=1;container=1;dropTarget=0;collapsible=0;recursiveResize=0;outlineConnect=0;portConstraint=eastwest;newEdgeStyle={&quot;edgeStyle&quot;:&quot;elbowEdgeStyle&quot;,&quot;elbow&quot;:&quot;vertical&quot;,&quot;curved&quot;:0,&quot;rounded&quot;:0};fontFamily=Helvetica;fontSize=11;fontColor=default;size=30;" vertex="1" parent="eUeM7UDu2hRqLlZZ38I7-1">
          <mxGeometry x="390" y="30" width="50" height="430" as="geometry" />
        </mxCell>
        <mxCell id="eUeM7UDu2hRqLlZZ38I7-17" value="" style="html=1;points=[];perimeter=orthogonalPerimeter;outlineConnect=0;targetShapes=umlLifeline;portConstraint=eastwest;newEdgeStyle={&quot;edgeStyle&quot;:&quot;elbowEdgeStyle&quot;,&quot;elbow&quot;:&quot;vertical&quot;,&quot;curved&quot;:0,&quot;rounded&quot;:0};fillColor=#808080;fontFamily=Helvetica;fontSize=11;fontColor=default;" vertex="1" parent="eUeM7UDu2hRqLlZZ38I7-14">
          <mxGeometry x="20" y="160" width="10" height="40" as="geometry" />
        </mxCell>
        <mxCell id="eUeM7UDu2hRqLlZZ38I7-43" value="" style="html=1;points=[];perimeter=orthogonalPerimeter;outlineConnect=0;targetShapes=umlLifeline;portConstraint=eastwest;newEdgeStyle={&quot;edgeStyle&quot;:&quot;elbowEdgeStyle&quot;,&quot;elbow&quot;:&quot;vertical&quot;,&quot;curved&quot;:0,&quot;rounded&quot;:0};fillColor=#808080;fontFamily=Helvetica;fontSize=11;fontColor=default;" vertex="1" parent="eUeM7UDu2hRqLlZZ38I7-14">
          <mxGeometry x="20" y="320" width="10" height="40" as="geometry" />
        </mxCell>
        <mxCell id="eUeM7UDu2hRqLlZZ38I7-18" style="edgeStyle=elbowEdgeStyle;shape=connector;curved=0;rounded=0;orthogonalLoop=1;jettySize=auto;elbow=vertical;html=1;labelBackgroundColor=default;strokeColor=default;fontFamily=Helvetica;fontSize=11;fontColor=default;endArrow=openThin;endFill=0;endSize=12;" edge="1" parent="eUeM7UDu2hRqLlZZ38I7-1">
          <mxGeometry relative="1" as="geometry">
            <mxPoint x="300" y="190" as="sourcePoint" />
            <mxPoint x="410" y="190" as="targetPoint" />
          </mxGeometry>
        </mxCell>
        <mxCell id="eUeM7UDu2hRqLlZZ38I7-19" value="doit(z)" style="edgeLabel;html=1;align=center;verticalAlign=middle;resizable=0;points=[];fontSize=11;fontFamily=Helvetica;fontColor=default;" vertex="1" connectable="0" parent="eUeM7UDu2hRqLlZZ38I7-18">
          <mxGeometry x="-0.1818" y="-1" relative="1" as="geometry">
            <mxPoint x="9" y="-15" as="offset" />
          </mxGeometry>
        </mxCell>
        <mxCell id="eUeM7UDu2hRqLlZZ38I7-20" style="edgeStyle=elbowEdgeStyle;shape=connector;curved=0;rounded=0;orthogonalLoop=1;jettySize=auto;elbow=horizontal;html=1;labelBackgroundColor=default;strokeColor=default;fontFamily=Helvetica;fontSize=11;fontColor=default;endArrow=openThin;endFill=0;endSize=12;dashed=1;" edge="1" parent="eUeM7UDu2hRqLlZZ38I7-1">
          <mxGeometry relative="1" as="geometry">
            <mxPoint x="410" y="229" as="sourcePoint" />
            <mxPoint x="300" y="229" as="targetPoint" />
          </mxGeometry>
        </mxCell>
        <mxCell id="eUeM7UDu2hRqLlZZ38I7-22" value="doit(-)" style="edgeLabel;html=1;align=center;verticalAlign=middle;resizable=0;points=[];fontSize=11;fontFamily=Helvetica;fontColor=default;" vertex="1" connectable="0" parent="eUeM7UDu2hRqLlZZ38I7-20">
          <mxGeometry x="-0.2364" y="1" relative="1" as="geometry">
            <mxPoint x="-14" y="-12" as="offset" />
          </mxGeometry>
        </mxCell>
        <mxCell id="eUeM7UDu2hRqLlZZ38I7-23" style="shape=connector;rounded=0;orthogonalLoop=1;jettySize=auto;elbow=vertical;html=1;labelBackgroundColor=default;strokeColor=default;fontFamily=Helvetica;fontSize=11;fontColor=default;endArrow=openThin;endFill=0;endSize=12;dashed=1;" edge="1" parent="eUeM7UDu2hRqLlZZ38I7-1" source="eUeM7UDu2hRqLlZZ38I7-3">
          <mxGeometry relative="1" as="geometry">
            <mxPoint x="111" y="126" as="sourcePoint" />
            <mxPoint x="271" y="126" as="targetPoint" />
          </mxGeometry>
        </mxCell>
        <mxCell id="eUeM7UDu2hRqLlZZ38I7-24" value="create" style="edgeLabel;html=1;align=center;verticalAlign=middle;resizable=0;points=[];fontSize=11;fontFamily=Helvetica;fontColor=default;" vertex="1" connectable="0" parent="eUeM7UDu2hRqLlZZ38I7-23">
          <mxGeometry x="-0.0409" y="1" relative="1" as="geometry">
            <mxPoint x="6" y="-11" as="offset" />
          </mxGeometry>
        </mxCell>
        <mxCell id="eUeM7UDu2hRqLlZZ38I7-25" style="edgeStyle=elbowEdgeStyle;shape=connector;curved=0;rounded=0;orthogonalLoop=1;jettySize=auto;elbow=vertical;html=1;labelBackgroundColor=default;strokeColor=default;fontFamily=Helvetica;fontSize=11;fontColor=default;endArrow=openThin;endFill=0;endSize=12;" edge="1" parent="eUeM7UDu2hRqLlZZ38I7-1">
          <mxGeometry relative="1" as="geometry">
            <mxPoint x="100" y="160" as="sourcePoint" />
            <mxPoint x="290" y="160" as="targetPoint" />
          </mxGeometry>
        </mxCell>
        <mxCell id="eUeM7UDu2hRqLlZZ38I7-26" value="foo(foo_par=x)" style="edgeLabel;html=1;align=center;verticalAlign=middle;resizable=0;points=[];fontSize=11;fontFamily=Helvetica;fontColor=default;" vertex="1" connectable="0" parent="eUeM7UDu2hRqLlZZ38I7-25">
          <mxGeometry x="-0.1684" y="1" relative="1" as="geometry">
            <mxPoint x="10" y="-10" as="offset" />
          </mxGeometry>
        </mxCell>
        <mxCell id="eUeM7UDu2hRqLlZZ38I7-30" style="edgeStyle=elbowEdgeStyle;shape=connector;curved=0;rounded=0;orthogonalLoop=1;jettySize=auto;elbow=vertical;html=1;labelBackgroundColor=default;strokeColor=default;fontFamily=Helvetica;fontSize=11;fontColor=default;endArrow=openThin;endFill=0;endSize=12;dashed=1;" edge="1" parent="eUeM7UDu2hRqLlZZ38I7-1">
          <mxGeometry relative="1" as="geometry">
            <mxPoint x="290" y="250" as="sourcePoint" />
            <mxPoint x="100" y="250" as="targetPoint" />
          </mxGeometry>
        </mxCell>
        <mxCell id="eUeM7UDu2hRqLlZZ38I7-31" value="foo(-)" style="edgeLabel;html=1;align=center;verticalAlign=middle;resizable=0;points=[];fontSize=11;fontFamily=Helvetica;fontColor=default;" vertex="1" connectable="0" parent="eUeM7UDu2hRqLlZZ38I7-30">
          <mxGeometry x="-0.2105" relative="1" as="geometry">
            <mxPoint x="-10" y="10" as="offset" />
          </mxGeometry>
        </mxCell>
        <mxCell id="eUeM7UDu2hRqLlZZ38I7-32" value="ob3:C3" style="shape=umlLifeline;perimeter=lifelinePerimeter;whiteSpace=wrap;html=1;container=1;dropTarget=0;collapsible=0;recursiveResize=0;outlineConnect=0;portConstraint=eastwest;newEdgeStyle={&quot;edgeStyle&quot;:&quot;elbowEdgeStyle&quot;,&quot;elbow&quot;:&quot;vertical&quot;,&quot;curved&quot;:0,&quot;rounded&quot;:0};fontFamily=Helvetica;fontSize=11;fontColor=default;size=30;" vertex="1" parent="eUeM7UDu2hRqLlZZ38I7-1">
          <mxGeometry x="220" y="30" width="50" height="430" as="geometry" />
        </mxCell>
        <mxCell id="eUeM7UDu2hRqLlZZ38I7-35" value="" style="html=1;points=[];perimeter=orthogonalPerimeter;outlineConnect=0;targetShapes=umlLifeline;portConstraint=eastwest;newEdgeStyle={&quot;edgeStyle&quot;:&quot;elbowEdgeStyle&quot;,&quot;elbow&quot;:&quot;vertical&quot;,&quot;curved&quot;:0,&quot;rounded&quot;:0};fillColor=#808080;fontFamily=Helvetica;fontSize=11;fontColor=default;" vertex="1" parent="eUeM7UDu2hRqLlZZ38I7-32">
          <mxGeometry x="20" y="290" width="10" height="80" as="geometry" />
        </mxCell>
        <mxCell id="eUeM7UDu2hRqLlZZ38I7-41" style="edgeStyle=elbowEdgeStyle;shape=connector;curved=0;rounded=0;orthogonalLoop=1;jettySize=auto;elbow=vertical;html=1;labelBackgroundColor=default;strokeColor=default;fontFamily=Helvetica;fontSize=11;fontColor=default;endArrow=openThin;endFill=0;endSize=12;" edge="1" parent="eUeM7UDu2hRqLlZZ38I7-1" target="eUeM7UDu2hRqLlZZ38I7-35">
          <mxGeometry relative="1" as="geometry">
            <mxPoint x="100" y="320" as="sourcePoint" />
            <mxPoint x="291" y="320" as="targetPoint" />
          </mxGeometry>
        </mxCell>
        <mxCell id="eUeM7UDu2hRqLlZZ38I7-42" value="bar(x)" style="edgeLabel;html=1;align=center;verticalAlign=middle;resizable=0;points=[];fontSize=11;fontFamily=Helvetica;fontColor=default;" vertex="1" connectable="0" parent="eUeM7UDu2hRqLlZZ38I7-41">
          <mxGeometry x="-0.1684" y="1" relative="1" as="geometry">
            <mxPoint x="10" y="-10" as="offset" />
          </mxGeometry>
        </mxCell>
        <mxCell id="eUeM7UDu2hRqLlZZ38I7-44" style="edgeStyle=elbowEdgeStyle;shape=connector;curved=0;rounded=0;orthogonalLoop=1;jettySize=auto;elbow=vertical;html=1;labelBackgroundColor=default;strokeColor=default;fontFamily=Helvetica;fontSize=11;fontColor=default;endArrow=openThin;endFill=0;endSize=12;" edge="1" parent="eUeM7UDu2hRqLlZZ38I7-1">
          <mxGeometry relative="1" as="geometry">
            <mxPoint x="250" y="350" as="sourcePoint" />
            <mxPoint x="410" y="350" as="targetPoint" />
          </mxGeometry>
        </mxCell>
        <mxCell id="eUeM7UDu2hRqLlZZ38I7-45" value="doit(z)" style="edgeLabel;html=1;align=center;verticalAlign=middle;resizable=0;points=[];fontSize=11;fontFamily=Helvetica;fontColor=default;" vertex="1" connectable="0" parent="eUeM7UDu2hRqLlZZ38I7-44">
          <mxGeometry x="-0.2875" y="-1" relative="1" as="geometry">
            <mxPoint x="22" y="-13" as="offset" />
          </mxGeometry>
        </mxCell>
        <mxCell id="eUeM7UDu2hRqLlZZ38I7-46" style="edgeStyle=elbowEdgeStyle;shape=connector;curved=0;rounded=0;orthogonalLoop=1;jettySize=auto;elbow=horizontal;html=1;labelBackgroundColor=default;strokeColor=default;fontFamily=Helvetica;fontSize=11;fontColor=default;endArrow=openThin;endFill=0;endSize=12;dashed=1;" edge="1" parent="eUeM7UDu2hRqLlZZ38I7-1">
          <mxGeometry relative="1" as="geometry">
            <mxPoint x="410" y="390" as="sourcePoint" />
            <mxPoint x="250" y="390" as="targetPoint" />
          </mxGeometry>
        </mxCell>
        <mxCell id="eUeM7UDu2hRqLlZZ38I7-47" value="doit(-)" style="edgeLabel;html=1;align=center;verticalAlign=middle;resizable=0;points=[];fontSize=11;fontFamily=Helvetica;fontColor=default;" vertex="1" connectable="0" parent="eUeM7UDu2hRqLlZZ38I7-46">
          <mxGeometry x="-0.35" relative="1" as="geometry">
            <mxPoint x="-30" y="10" as="offset" />
          </mxGeometry>
        </mxCell>
        <mxCell id="eUeM7UDu2hRqLlZZ38I7-48" style="edgeStyle=elbowEdgeStyle;shape=connector;curved=0;rounded=0;orthogonalLoop=1;jettySize=auto;elbow=horizontal;html=1;labelBackgroundColor=default;strokeColor=default;fontFamily=Helvetica;fontSize=11;fontColor=default;endArrow=openThin;endFill=0;endSize=12;dashed=1;" edge="1" parent="eUeM7UDu2hRqLlZZ38I7-1">
          <mxGeometry relative="1" as="geometry">
            <mxPoint x="240" y="400" as="sourcePoint" />
            <mxPoint x="100" y="400" as="targetPoint" />
          </mxGeometry>
        </mxCell>
        <mxCell id="eUeM7UDu2hRqLlZZ38I7-49" value="x = bar(x): 15" style="edgeLabel;html=1;align=center;verticalAlign=middle;resizable=0;points=[];fontSize=11;fontFamily=Helvetica;fontColor=default;" vertex="1" connectable="0" parent="eUeM7UDu2hRqLlZZ38I7-48">
          <mxGeometry x="0.3" relative="1" as="geometry">
            <mxPoint x="22" y="-12" as="offset" />
          </mxGeometry>
        </mxCell>
        <mxCell id="eUeM7UDu2hRqLlZZ38I7-50" style="edgeStyle=elbowEdgeStyle;shape=connector;curved=0;rounded=0;orthogonalLoop=1;jettySize=auto;elbow=horizontal;html=1;labelBackgroundColor=default;strokeColor=default;fontFamily=Helvetica;fontSize=11;fontColor=default;endArrow=openThin;endFill=0;endSize=12;dashed=1;" edge="1" parent="eUeM7UDu2hRqLlZZ38I7-1">
          <mxGeometry relative="1" as="geometry">
            <mxPoint x="90" y="439" as="sourcePoint" />
            <mxPoint y="439" as="targetPoint" />
          </mxGeometry>
        </mxCell>
        <mxCell id="eUeM7UDu2hRqLlZZ38I7-51" value="opti" style="edgeLabel;html=1;align=center;verticalAlign=middle;resizable=0;points=[];fontSize=11;fontFamily=Helvetica;fontColor=default;" vertex="1" connectable="0" parent="eUeM7UDu2hRqLlZZ38I7-50">
          <mxGeometry x="-0.2667" y="1" relative="1" as="geometry">
            <mxPoint x="-11" y="-13" as="offset" />
          </mxGeometry>
        </mxCell>
        <mxCell id="eUeM7UDu2hRqLlZZ38I7-36" value="" style="edgeStyle=none;orthogonalLoop=1;jettySize=auto;html=1;rounded=0;labelBackgroundColor=default;strokeColor=default;fontFamily=Helvetica;fontSize=11;fontColor=default;endArrow=none;endFill=0;endSize=12;shape=connector;curved=0;elbow=vertical;dashed=1;dashPattern=8 8;" edge="1" parent="1">
          <mxGeometry width="100" relative="1" as="geometry">
            <mxPoint x="20" y="290" as="sourcePoint" />
            <mxPoint x="490" y="290" as="targetPoint" />
            <Array as="points" />
          </mxGeometry>
        </mxCell>
        <mxCell id="eUeM7UDu2hRqLlZZ38I7-52" value="&lt;b&gt;Figure 17.14 CombinedFragment&lt;/b&gt;" style="text;html=1;align=left;verticalAlign=middle;resizable=0;points=[];autosize=1;strokeColor=none;fillColor=none;fontSize=11;fontFamily=Helvetica;fontColor=default;" vertex="1" parent="1">
          <mxGeometry y="470" width="190" height="30" as="geometry" />
        </mxCell>
      </root>
    </mxGraphModel>
  </diagram>
  <diagram id="teYVYFhzIwv_OlrTYzz6" name="17.15">
    <mxGraphModel dx="880" dy="545" grid="1" gridSize="10" guides="1" tooltips="1" connect="1" arrows="1" fold="1" page="1" pageScale="1" pageWidth="1169" pageHeight="827" math="0" shadow="0">
      <root>
        <mxCell id="0" />
        <mxCell id="1" value="uml" parent="0" />
        <mxCell id="bq5hPsCRytmu_oJqYhvH-1" value="&lt;b style=&quot;font-size: 12px;&quot;&gt;sd&lt;/b&gt; Continue" style="shape=umlFrame;whiteSpace=wrap;html=1;pointerEvents=0;recursiveResize=0;container=1;collapsible=0;width=90;fontFamily=Helvetica;fontSize=12;fontColor=default;height=30;" vertex="1" parent="1">
          <mxGeometry x="10" y="10" width="290" height="370" as="geometry" />
        </mxCell>
        <mxCell id="bq5hPsCRytmu_oJqYhvH-9" style="edgeStyle=elbowEdgeStyle;shape=connector;curved=0;rounded=0;orthogonalLoop=1;jettySize=auto;elbow=vertical;html=1;labelBackgroundColor=default;strokeColor=default;fontFamily=Helvetica;fontSize=11;fontColor=default;endArrow=openThin;endFill=0;endSize=12;" edge="1" parent="bq5hPsCRytmu_oJqYhvH-1">
          <mxGeometry relative="1" as="geometry">
            <mxPoint x="39.5" y="270" as="sourcePoint" />
            <mxPoint x="139.5" y="270" as="targetPoint" />
          </mxGeometry>
        </mxCell>
        <mxCell id="bq5hPsCRytmu_oJqYhvH-10" value="yes" style="edgeLabel;html=1;align=center;verticalAlign=middle;resizable=0;points=[];fontSize=11;fontFamily=Helvetica;fontColor=default;" vertex="1" connectable="0" parent="bq5hPsCRytmu_oJqYhvH-9">
          <mxGeometry x="-0.51" y="1" relative="1" as="geometry">
            <mxPoint x="25" y="-10" as="offset" />
          </mxGeometry>
        </mxCell>
        <mxCell id="bq5hPsCRytmu_oJqYhvH-2" value=":A" style="shape=umlLifeline;perimeter=lifelinePerimeter;whiteSpace=wrap;html=1;container=1;dropTarget=0;collapsible=0;recursiveResize=0;outlineConnect=0;portConstraint=eastwest;newEdgeStyle={&quot;edgeStyle&quot;:&quot;elbowEdgeStyle&quot;,&quot;elbow&quot;:&quot;vertical&quot;,&quot;curved&quot;:0,&quot;rounded&quot;:0};fontFamily=Helvetica;fontSize=11;fontColor=default;" vertex="1" parent="bq5hPsCRytmu_oJqYhvH-1">
          <mxGeometry x="10" y="40" width="60" height="330" as="geometry" />
        </mxCell>
        <mxCell id="bq5hPsCRytmu_oJqYhvH-3" value=":B" style="shape=umlLifeline;perimeter=lifelinePerimeter;whiteSpace=wrap;html=1;container=1;dropTarget=0;collapsible=0;recursiveResize=0;outlineConnect=0;portConstraint=eastwest;newEdgeStyle={&quot;edgeStyle&quot;:&quot;elbowEdgeStyle&quot;,&quot;elbow&quot;:&quot;vertical&quot;,&quot;curved&quot;:0,&quot;rounded&quot;:0};fontFamily=Helvetica;fontSize=11;fontColor=default;" vertex="1" parent="bq5hPsCRytmu_oJqYhvH-1">
          <mxGeometry x="100" y="40" width="80" height="330" as="geometry" />
        </mxCell>
        <mxCell id="bq5hPsCRytmu_oJqYhvH-4" value=":C" style="shape=umlLifeline;perimeter=lifelinePerimeter;whiteSpace=wrap;html=1;container=1;dropTarget=0;collapsible=0;recursiveResize=0;outlineConnect=0;portConstraint=eastwest;newEdgeStyle={&quot;edgeStyle&quot;:&quot;elbowEdgeStyle&quot;,&quot;elbow&quot;:&quot;vertical&quot;,&quot;curved&quot;:0,&quot;rounded&quot;:0};fontFamily=Helvetica;fontSize=11;fontColor=default;" vertex="1" parent="bq5hPsCRytmu_oJqYhvH-1">
          <mxGeometry x="210" y="40" width="70" height="330" as="geometry" />
        </mxCell>
        <mxCell id="bq5hPsCRytmu_oJqYhvH-5" value="ref" style="shape=umlFrame;whiteSpace=wrap;html=1;pointerEvents=0;recursiveResize=0;container=1;collapsible=0;width=40;fontFamily=Helvetica;fontSize=11;fontColor=default;height=20;labelBackgroundColor=default;swimlaneFillColor=default;" vertex="1" parent="bq5hPsCRytmu_oJqYhvH-1">
          <mxGeometry x="10" y="100" width="190" height="80" as="geometry" />
        </mxCell>
        <mxCell id="bq5hPsCRytmu_oJqYhvH-6" value="Question" style="text;align=center;html=1;fontSize=11;fontFamily=Helvetica;fontColor=default;" vertex="1" parent="bq5hPsCRytmu_oJqYhvH-5">
          <mxGeometry width="100" height="20" relative="1" as="geometry">
            <mxPoint x="45" y="30" as="offset" />
          </mxGeometry>
        </mxCell>
        <mxCell id="bq5hPsCRytmu_oJqYhvH-7" value="alt" style="shape=umlFrame;whiteSpace=wrap;html=1;pointerEvents=0;recursiveResize=0;container=1;collapsible=0;width=40;fontFamily=Helvetica;fontSize=11;fontColor=default;height=20;" vertex="1" parent="bq5hPsCRytmu_oJqYhvH-1">
          <mxGeometry x="10" y="200" width="220" height="150" as="geometry" />
        </mxCell>
        <mxCell id="bq5hPsCRytmu_oJqYhvH-13" value="ok" style="html=1;align=center;verticalAlign=middle;rounded=1;absoluteArcSize=1;arcSize=40;dashed=0;whiteSpace=wrap;fontFamily=Helvetica;fontSize=11;fontColor=default;" vertex="1" parent="bq5hPsCRytmu_oJqYhvH-7">
          <mxGeometry x="10" y="26" width="180" height="25" as="geometry" />
        </mxCell>
        <mxCell id="bq5hPsCRytmu_oJqYhvH-14" value="notOK" style="html=1;align=center;verticalAlign=middle;rounded=1;absoluteArcSize=1;arcSize=40;dashed=0;whiteSpace=wrap;fontFamily=Helvetica;fontSize=11;fontColor=default;" vertex="1" parent="bq5hPsCRytmu_oJqYhvH-7">
          <mxGeometry x="10" y="95" width="180" height="25" as="geometry" />
        </mxCell>
        <mxCell id="bq5hPsCRytmu_oJqYhvH-11" style="edgeStyle=elbowEdgeStyle;shape=connector;curved=0;rounded=0;orthogonalLoop=1;jettySize=auto;elbow=vertical;html=1;labelBackgroundColor=default;strokeColor=default;fontFamily=Helvetica;fontSize=11;fontColor=default;endArrow=openThin;endFill=0;endSize=12;" edge="1" parent="bq5hPsCRytmu_oJqYhvH-1">
          <mxGeometry relative="1" as="geometry">
            <mxPoint x="39.5" y="340" as="sourcePoint" />
            <mxPoint x="140" y="340" as="targetPoint" />
          </mxGeometry>
        </mxCell>
        <mxCell id="bq5hPsCRytmu_oJqYhvH-12" value="no" style="edgeLabel;html=1;align=center;verticalAlign=middle;resizable=0;points=[];fontSize=11;fontFamily=Helvetica;fontColor=default;" vertex="1" connectable="0" parent="bq5hPsCRytmu_oJqYhvH-11">
          <mxGeometry x="-0.51" y="1" relative="1" as="geometry">
            <mxPoint x="25" y="-10" as="offset" />
          </mxGeometry>
        </mxCell>
        <mxCell id="bq5hPsCRytmu_oJqYhvH-15" value="" style="edgeStyle=none;orthogonalLoop=1;jettySize=auto;html=1;rounded=0;labelBackgroundColor=default;strokeColor=default;fontFamily=Helvetica;fontSize=11;fontColor=default;endArrow=none;endFill=0;endSize=12;shape=connector;curved=0;elbow=vertical;dashed=1;dashPattern=8 8;" edge="1" parent="bq5hPsCRytmu_oJqYhvH-1">
          <mxGeometry width="100" relative="1" as="geometry">
            <mxPoint x="10" y="290" as="sourcePoint" />
            <mxPoint x="230" y="290" as="targetPoint" />
            <Array as="points" />
          </mxGeometry>
        </mxCell>
        <mxCell id="bq5hPsCRytmu_oJqYhvH-16" value="&lt;b&gt;Figure 17.15 Continuation&lt;/b&gt;" style="text;html=1;align=left;verticalAlign=middle;resizable=0;points=[];autosize=1;strokeColor=none;fillColor=none;fontSize=11;fontFamily=Helvetica;fontColor=default;" vertex="1" parent="1">
          <mxGeometry x="10" y="450" width="160" height="30" as="geometry" />
        </mxCell>
        <mxCell id="bq5hPsCRytmu_oJqYhvH-17" value="&lt;b style=&quot;font-size: 12px;&quot;&gt;sd&lt;/b&gt;&amp;nbsp;Question" style="shape=umlFrame;whiteSpace=wrap;html=1;pointerEvents=0;recursiveResize=0;container=1;collapsible=0;width=90;fontFamily=Helvetica;fontSize=12;fontColor=default;height=30;" vertex="1" parent="1">
          <mxGeometry x="330" y="10" width="270" height="300" as="geometry" />
        </mxCell>
        <mxCell id="bq5hPsCRytmu_oJqYhvH-20" value=":A" style="shape=umlLifeline;perimeter=lifelinePerimeter;whiteSpace=wrap;html=1;container=1;dropTarget=0;collapsible=0;recursiveResize=0;outlineConnect=0;portConstraint=eastwest;newEdgeStyle={&quot;edgeStyle&quot;:&quot;elbowEdgeStyle&quot;,&quot;elbow&quot;:&quot;vertical&quot;,&quot;curved&quot;:0,&quot;rounded&quot;:0};fontFamily=Helvetica;fontSize=11;fontColor=default;" vertex="1" parent="bq5hPsCRytmu_oJqYhvH-17">
          <mxGeometry x="50" y="40" width="60" height="250" as="geometry" />
        </mxCell>
        <mxCell id="bq5hPsCRytmu_oJqYhvH-31" style="edgeStyle=elbowEdgeStyle;shape=connector;curved=0;rounded=0;orthogonalLoop=1;jettySize=auto;elbow=horizontal;html=1;labelBackgroundColor=default;strokeColor=default;fontFamily=Helvetica;fontSize=11;fontColor=default;endArrow=openThin;endFill=0;endSize=12;" edge="1" parent="bq5hPsCRytmu_oJqYhvH-17">
          <mxGeometry relative="1" as="geometry">
            <mxPoint x="179.5" y="105" as="sourcePoint" />
            <mxPoint x="79.5" y="105" as="targetPoint" />
          </mxGeometry>
        </mxCell>
        <mxCell id="bq5hPsCRytmu_oJqYhvH-32" value="ask" style="edgeLabel;html=1;align=center;verticalAlign=middle;resizable=0;points=[];fontSize=11;fontFamily=Helvetica;fontColor=default;" vertex="1" connectable="0" parent="bq5hPsCRytmu_oJqYhvH-31">
          <mxGeometry x="0.35" y="-1" relative="1" as="geometry">
            <mxPoint x="18" y="-10" as="offset" />
          </mxGeometry>
        </mxCell>
        <mxCell id="bq5hPsCRytmu_oJqYhvH-21" value=":B" style="shape=umlLifeline;perimeter=lifelinePerimeter;whiteSpace=wrap;html=1;container=1;dropTarget=0;collapsible=0;recursiveResize=0;outlineConnect=0;portConstraint=eastwest;newEdgeStyle={&quot;edgeStyle&quot;:&quot;elbowEdgeStyle&quot;,&quot;elbow&quot;:&quot;vertical&quot;,&quot;curved&quot;:0,&quot;rounded&quot;:0};fontFamily=Helvetica;fontSize=11;fontColor=default;" vertex="1" parent="bq5hPsCRytmu_oJqYhvH-17">
          <mxGeometry x="150" y="40" width="60" height="250" as="geometry" />
        </mxCell>
        <mxCell id="bq5hPsCRytmu_oJqYhvH-25" value="alt" style="shape=umlFrame;whiteSpace=wrap;html=1;pointerEvents=0;recursiveResize=0;container=1;collapsible=0;width=40;fontFamily=Helvetica;fontSize=11;fontColor=default;height=20;" vertex="1" parent="bq5hPsCRytmu_oJqYhvH-17">
          <mxGeometry x="10" y="120" width="250" height="160" as="geometry" />
        </mxCell>
        <mxCell id="bq5hPsCRytmu_oJqYhvH-26" value="ok" style="html=1;align=center;verticalAlign=middle;rounded=1;absoluteArcSize=1;arcSize=40;dashed=0;whiteSpace=wrap;fontFamily=Helvetica;fontSize=11;fontColor=default;" vertex="1" parent="bq5hPsCRytmu_oJqYhvH-25">
          <mxGeometry x="40" y="55" width="150" height="25" as="geometry" />
        </mxCell>
        <mxCell id="bq5hPsCRytmu_oJqYhvH-27" value="notOK" style="html=1;align=center;verticalAlign=middle;rounded=1;absoluteArcSize=1;arcSize=40;dashed=0;whiteSpace=wrap;fontFamily=Helvetica;fontSize=11;fontColor=default;" vertex="1" parent="bq5hPsCRytmu_oJqYhvH-25">
          <mxGeometry x="40" y="125" width="150" height="25" as="geometry" />
        </mxCell>
        <mxCell id="bq5hPsCRytmu_oJqYhvH-28" style="edgeStyle=elbowEdgeStyle;shape=connector;curved=0;rounded=0;orthogonalLoop=1;jettySize=auto;elbow=vertical;html=1;labelBackgroundColor=default;strokeColor=default;fontFamily=Helvetica;fontSize=11;fontColor=default;endArrow=openThin;endFill=0;endSize=12;" edge="1" parent="bq5hPsCRytmu_oJqYhvH-17">
          <mxGeometry relative="1" as="geometry">
            <mxPoint x="79.5" y="230" as="sourcePoint" />
            <mxPoint x="179.5" y="230" as="targetPoint" />
          </mxGeometry>
        </mxCell>
        <mxCell id="bq5hPsCRytmu_oJqYhvH-29" value="nonono" style="edgeLabel;html=1;align=center;verticalAlign=middle;resizable=0;points=[];fontSize=11;fontFamily=Helvetica;fontColor=default;" vertex="1" connectable="0" parent="bq5hPsCRytmu_oJqYhvH-28">
          <mxGeometry x="-0.51" y="1" relative="1" as="geometry">
            <mxPoint x="25" y="-10" as="offset" />
          </mxGeometry>
        </mxCell>
        <mxCell id="bq5hPsCRytmu_oJqYhvH-30" value="" style="edgeStyle=none;orthogonalLoop=1;jettySize=auto;html=1;rounded=0;labelBackgroundColor=default;strokeColor=default;fontFamily=Helvetica;fontSize=11;fontColor=default;endArrow=none;endFill=0;endSize=12;shape=connector;curved=0;elbow=vertical;dashed=1;dashPattern=8 8;exitX=-0.004;exitY=0.533;exitDx=0;exitDy=0;exitPerimeter=0;" edge="1" parent="bq5hPsCRytmu_oJqYhvH-17">
          <mxGeometry width="100" relative="1" as="geometry">
            <mxPoint x="9" y="209.95000000000005" as="sourcePoint" />
            <mxPoint x="260" y="210" as="targetPoint" />
            <Array as="points" />
          </mxGeometry>
        </mxCell>
        <mxCell id="bq5hPsCRytmu_oJqYhvH-33" value="DoSth" style="whiteSpace=wrap;html=1;fontFamily=Helvetica;fontSize=11;fontColor=default;" vertex="1" parent="bq5hPsCRytmu_oJqYhvH-17">
          <mxGeometry x="50" y="130" width="60" height="30" as="geometry" />
        </mxCell>
        <mxCell id="bq5hPsCRytmu_oJqYhvH-34" value="annotation" parent="0" />
        <mxCell id="bq5hPsCRytmu_oJqYhvH-36" style="shape=connector;rounded=0;orthogonalLoop=1;jettySize=auto;elbow=vertical;html=1;labelBackgroundColor=none;strokeColor=#FF0000;fontFamily=Helvetica;fontSize=11;fontColor=default;endArrow=blockThin;endFill=0;endSize=12;jumpSize=6;" edge="1" parent="bq5hPsCRytmu_oJqYhvH-34" source="bq5hPsCRytmu_oJqYhvH-35">
          <mxGeometry relative="1" as="geometry">
            <mxPoint x="170" y="336" as="targetPoint" />
          </mxGeometry>
        </mxCell>
        <mxCell id="bq5hPsCRytmu_oJqYhvH-35" value="&lt;i&gt;Continuation (setting == False)&lt;/i&gt;" style="text;html=1;align=center;verticalAlign=middle;resizable=0;points=[];autosize=1;strokeColor=none;fillColor=none;fontSize=11;fontFamily=Verdana;fontColor=#FF0000;" vertex="1" parent="bq5hPsCRytmu_oJqYhvH-34">
          <mxGeometry x="75" y="410" width="200" height="30" as="geometry" />
        </mxCell>
        <mxCell id="bq5hPsCRytmu_oJqYhvH-37" value="&lt;i&gt;Continuation (setting == True)&lt;/i&gt;" style="text;html=1;align=center;verticalAlign=middle;resizable=0;points=[];autosize=1;strokeColor=none;fillColor=none;fontSize=11;fontFamily=Verdana;fontColor=#FF0000;" vertex="1" parent="bq5hPsCRytmu_oJqYhvH-34">
          <mxGeometry x="350" y="380" width="200" height="30" as="geometry" />
        </mxCell>
        <mxCell id="bq5hPsCRytmu_oJqYhvH-39" style="shape=connector;rounded=0;orthogonalLoop=1;jettySize=auto;elbow=vertical;html=1;labelBackgroundColor=none;strokeColor=#FF0000;fontFamily=Helvetica;fontSize=11;fontColor=default;endArrow=blockThin;endFill=0;endSize=12;jumpSize=6;exitX=0.495;exitY=0.1;exitDx=0;exitDy=0;exitPerimeter=0;" edge="1" parent="bq5hPsCRytmu_oJqYhvH-34">
          <mxGeometry relative="1" as="geometry">
            <mxPoint x="453" y="292" as="targetPoint" />
            <mxPoint x="449" y="383" as="sourcePoint" />
          </mxGeometry>
        </mxCell>
      </root>
    </mxGraphModel>
  </diagram>
  <diagram id="A5z28Flwoc6N6dYlPqxi" name="17.16">
    <mxGraphModel dx="880" dy="545" grid="1" gridSize="10" guides="1" tooltips="1" connect="1" arrows="1" fold="1" page="1" pageScale="1" pageWidth="1169" pageHeight="827" math="0" shadow="0">
      <root>
        <mxCell id="0" />
        <mxCell id="1" parent="0" />
        <mxCell id="h5yuNyaclg3tIgbhCzm8-1" value="&lt;b style=&quot;font-size: 12px;&quot;&gt;sd&lt;/b&gt; Continue" style="shape=umlFrame;whiteSpace=wrap;html=1;pointerEvents=0;recursiveResize=0;container=1;collapsible=0;width=90;fontFamily=Helvetica;fontSize=12;fontColor=default;height=30;" vertex="1" parent="1">
          <mxGeometry x="10" y="10" width="290" height="330" as="geometry" />
        </mxCell>
        <mxCell id="h5yuNyaclg3tIgbhCzm8-2" style="edgeStyle=elbowEdgeStyle;shape=connector;curved=0;rounded=0;orthogonalLoop=1;jettySize=auto;elbow=vertical;html=1;labelBackgroundColor=default;strokeColor=default;fontFamily=Helvetica;fontSize=11;fontColor=default;endArrow=openThin;endFill=0;endSize=12;" edge="1" parent="h5yuNyaclg3tIgbhCzm8-1">
          <mxGeometry relative="1" as="geometry">
            <mxPoint x="49.5" y="210" as="sourcePoint" />
            <mxPoint x="149.5" y="210" as="targetPoint" />
          </mxGeometry>
        </mxCell>
        <mxCell id="h5yuNyaclg3tIgbhCzm8-3" value="yes" style="edgeLabel;html=1;align=center;verticalAlign=middle;resizable=0;points=[];fontSize=11;fontFamily=Helvetica;fontColor=default;" vertex="1" connectable="0" parent="h5yuNyaclg3tIgbhCzm8-2">
          <mxGeometry x="-0.51" y="1" relative="1" as="geometry">
            <mxPoint x="25" y="-10" as="offset" />
          </mxGeometry>
        </mxCell>
        <mxCell id="h5yuNyaclg3tIgbhCzm8-28" style="edgeStyle=elbowEdgeStyle;shape=connector;curved=0;rounded=0;orthogonalLoop=1;jettySize=auto;elbow=horizontal;html=1;labelBackgroundColor=default;strokeColor=default;fontFamily=Helvetica;fontSize=11;fontColor=default;endArrow=openThin;endFill=0;endSize=12;" edge="1" parent="h5yuNyaclg3tIgbhCzm8-1">
          <mxGeometry relative="1" as="geometry">
            <mxPoint x="149.5" y="105" as="sourcePoint" />
            <mxPoint x="49.5" y="105" as="targetPoint" />
          </mxGeometry>
        </mxCell>
        <mxCell id="h5yuNyaclg3tIgbhCzm8-29" value="ask" style="edgeLabel;html=1;align=center;verticalAlign=middle;resizable=0;points=[];fontSize=11;fontFamily=Helvetica;fontColor=default;" vertex="1" connectable="0" parent="h5yuNyaclg3tIgbhCzm8-28">
          <mxGeometry x="-0.63" y="3" relative="1" as="geometry">
            <mxPoint x="-31" y="-14" as="offset" />
          </mxGeometry>
        </mxCell>
        <mxCell id="h5yuNyaclg3tIgbhCzm8-4" value=":A" style="shape=umlLifeline;perimeter=lifelinePerimeter;whiteSpace=wrap;html=1;container=1;dropTarget=0;collapsible=0;recursiveResize=0;outlineConnect=0;portConstraint=eastwest;newEdgeStyle={&quot;edgeStyle&quot;:&quot;elbowEdgeStyle&quot;,&quot;elbow&quot;:&quot;vertical&quot;,&quot;curved&quot;:0,&quot;rounded&quot;:0};fontFamily=Helvetica;fontSize=11;fontColor=default;" vertex="1" parent="h5yuNyaclg3tIgbhCzm8-1">
          <mxGeometry x="20" y="40" width="60" height="290" as="geometry" />
        </mxCell>
        <mxCell id="h5yuNyaclg3tIgbhCzm8-5" value=":B" style="shape=umlLifeline;perimeter=lifelinePerimeter;whiteSpace=wrap;html=1;container=1;dropTarget=0;collapsible=0;recursiveResize=0;outlineConnect=0;portConstraint=eastwest;newEdgeStyle={&quot;edgeStyle&quot;:&quot;elbowEdgeStyle&quot;,&quot;elbow&quot;:&quot;vertical&quot;,&quot;curved&quot;:0,&quot;rounded&quot;:0};fontFamily=Helvetica;fontSize=11;fontColor=default;" vertex="1" parent="h5yuNyaclg3tIgbhCzm8-1">
          <mxGeometry x="110" y="40" width="80" height="290" as="geometry" />
        </mxCell>
        <mxCell id="h5yuNyaclg3tIgbhCzm8-6" value=":C" style="shape=umlLifeline;perimeter=lifelinePerimeter;whiteSpace=wrap;html=1;container=1;dropTarget=0;collapsible=0;recursiveResize=0;outlineConnect=0;portConstraint=eastwest;newEdgeStyle={&quot;edgeStyle&quot;:&quot;elbowEdgeStyle&quot;,&quot;elbow&quot;:&quot;vertical&quot;,&quot;curved&quot;:0,&quot;rounded&quot;:0};fontFamily=Helvetica;fontSize=11;fontColor=default;" vertex="1" parent="h5yuNyaclg3tIgbhCzm8-1">
          <mxGeometry x="210" y="40" width="70" height="290" as="geometry" />
        </mxCell>
        <mxCell id="h5yuNyaclg3tIgbhCzm8-9" value="alt" style="shape=umlFrame;whiteSpace=wrap;html=1;pointerEvents=0;recursiveResize=0;container=1;collapsible=0;width=40;fontFamily=Helvetica;fontSize=11;fontColor=default;height=20;" vertex="1" parent="h5yuNyaclg3tIgbhCzm8-1">
          <mxGeometry x="10" y="130" width="220" height="180" as="geometry" />
        </mxCell>
        <mxCell id="h5yuNyaclg3tIgbhCzm8-27" value="DoSth" style="whiteSpace=wrap;html=1;fontFamily=Helvetica;fontSize=11;fontColor=default;" vertex="1" parent="h5yuNyaclg3tIgbhCzm8-9">
          <mxGeometry x="10" y="30" width="60" height="30" as="geometry" />
        </mxCell>
        <mxCell id="h5yuNyaclg3tIgbhCzm8-12" style="edgeStyle=elbowEdgeStyle;shape=connector;curved=0;rounded=0;orthogonalLoop=1;jettySize=auto;elbow=vertical;html=1;labelBackgroundColor=default;strokeColor=default;fontFamily=Helvetica;fontSize=11;fontColor=default;endArrow=openThin;endFill=0;endSize=12;" edge="1" parent="h5yuNyaclg3tIgbhCzm8-1">
          <mxGeometry relative="1" as="geometry">
            <mxPoint x="49.5" y="260" as="sourcePoint" />
            <mxPoint x="150" y="260" as="targetPoint" />
          </mxGeometry>
        </mxCell>
        <mxCell id="h5yuNyaclg3tIgbhCzm8-13" value="nonono" style="edgeLabel;html=1;align=center;verticalAlign=middle;resizable=0;points=[];fontSize=11;fontFamily=Helvetica;fontColor=default;" vertex="1" connectable="0" parent="h5yuNyaclg3tIgbhCzm8-12">
          <mxGeometry x="-0.51" y="1" relative="1" as="geometry">
            <mxPoint x="25" y="-10" as="offset" />
          </mxGeometry>
        </mxCell>
        <mxCell id="h5yuNyaclg3tIgbhCzm8-14" value="" style="edgeStyle=none;orthogonalLoop=1;jettySize=auto;html=1;rounded=0;labelBackgroundColor=default;strokeColor=default;fontFamily=Helvetica;fontSize=11;fontColor=default;endArrow=none;endFill=0;endSize=12;shape=connector;curved=0;elbow=vertical;dashed=1;dashPattern=8 8;" edge="1" parent="h5yuNyaclg3tIgbhCzm8-1">
          <mxGeometry width="100" relative="1" as="geometry">
            <mxPoint x="10" y="230" as="sourcePoint" />
            <mxPoint x="230" y="230" as="targetPoint" />
            <Array as="points" />
          </mxGeometry>
        </mxCell>
        <mxCell id="h5yuNyaclg3tIgbhCzm8-30" style="edgeStyle=elbowEdgeStyle;shape=connector;curved=0;rounded=0;orthogonalLoop=1;jettySize=auto;elbow=vertical;html=1;labelBackgroundColor=default;strokeColor=default;fontFamily=Helvetica;fontSize=11;fontColor=default;endArrow=openThin;endFill=0;endSize=12;" edge="1" parent="h5yuNyaclg3tIgbhCzm8-1">
          <mxGeometry relative="1" as="geometry">
            <mxPoint x="49.5" y="290" as="sourcePoint" />
            <mxPoint x="150" y="290" as="targetPoint" />
          </mxGeometry>
        </mxCell>
        <mxCell id="h5yuNyaclg3tIgbhCzm8-31" value="no" style="edgeLabel;html=1;align=center;verticalAlign=middle;resizable=0;points=[];fontSize=11;fontFamily=Helvetica;fontColor=default;" vertex="1" connectable="0" parent="h5yuNyaclg3tIgbhCzm8-30">
          <mxGeometry x="-0.51" y="1" relative="1" as="geometry">
            <mxPoint x="25" y="-10" as="offset" />
          </mxGeometry>
        </mxCell>
        <mxCell id="h5yuNyaclg3tIgbhCzm8-15" value="&lt;b&gt;Figure 17.16 Continuation interpretation&lt;/b&gt;" style="text;html=1;align=left;verticalAlign=middle;resizable=0;points=[];autosize=1;strokeColor=none;fillColor=none;fontSize=11;fontFamily=Helvetica;fontColor=default;" vertex="1" parent="1">
          <mxGeometry x="10" y="340" width="230" height="30" as="geometry" />
        </mxCell>
      </root>
    </mxGraphModel>
  </diagram>
  <diagram id="EJ4dHWuiPLphy4LydLgg" name="17.17">
    <mxGraphModel dx="880" dy="545" grid="1" gridSize="10" guides="1" tooltips="1" connect="1" arrows="1" fold="1" page="1" pageScale="1" pageWidth="1169" pageHeight="827" math="0" shadow="0">
      <root>
        <mxCell id="0" />
        <mxCell id="1" value="uml" parent="0" />
        <mxCell id="QREv3vWo1BiZqHH107UK-1" value="&lt;b style=&quot;font-size: 12px;&quot;&gt;sd&lt;/b&gt;&amp;nbsp;M &lt;b&gt;ignore&lt;/b&gt; {t, r}" style="shape=umlFrame;whiteSpace=wrap;html=1;pointerEvents=0;recursiveResize=0;container=1;collapsible=0;width=120;fontFamily=Helvetica;fontSize=12;fontColor=default;height=30;" vertex="1" parent="1">
          <mxGeometry x="10" y="10" width="390" height="340" as="geometry" />
        </mxCell>
        <mxCell id="QREv3vWo1BiZqHH107UK-20" style="edgeStyle=elbowEdgeStyle;shape=connector;curved=0;rounded=0;orthogonalLoop=1;jettySize=auto;elbow=horizontal;html=1;labelBackgroundColor=default;strokeColor=default;fontFamily=Helvetica;fontSize=11;fontColor=default;endArrow=openThin;endFill=0;endSize=12;" edge="1" parent="QREv3vWo1BiZqHH107UK-1">
          <mxGeometry relative="1" as="geometry">
            <mxPoint x="49.5" y="200" as="sourcePoint" />
            <mxPoint x="189.5" y="200" as="targetPoint" />
          </mxGeometry>
        </mxCell>
        <mxCell id="QREv3vWo1BiZqHH107UK-21" value="v" style="edgeLabel;html=1;align=center;verticalAlign=middle;resizable=0;points=[];fontSize=11;fontFamily=Helvetica;fontColor=default;" vertex="1" connectable="0" parent="QREv3vWo1BiZqHH107UK-20">
          <mxGeometry x="0.45" y="-2" relative="1" as="geometry">
            <mxPoint x="-33" y="-17" as="offset" />
          </mxGeometry>
        </mxCell>
        <mxCell id="QREv3vWo1BiZqHH107UK-22" style="edgeStyle=elbowEdgeStyle;shape=connector;curved=0;rounded=0;orthogonalLoop=1;jettySize=auto;elbow=vertical;html=1;labelBackgroundColor=default;strokeColor=default;fontFamily=Helvetica;fontSize=11;fontColor=default;endArrow=openThin;endFill=0;endSize=12;" edge="1" parent="QREv3vWo1BiZqHH107UK-1">
          <mxGeometry relative="1" as="geometry">
            <mxPoint x="49.5" y="245" as="sourcePoint" />
            <mxPoint x="189.5" y="245" as="targetPoint" />
          </mxGeometry>
        </mxCell>
        <mxCell id="QREv3vWo1BiZqHH107UK-23" value="q" style="edgeLabel;html=1;align=center;verticalAlign=middle;resizable=0;points=[];fontSize=11;fontFamily=Helvetica;fontColor=default;" vertex="1" connectable="0" parent="QREv3vWo1BiZqHH107UK-22">
          <mxGeometry x="0.1786" y="1" relative="1" as="geometry">
            <mxPoint x="-16" y="-13" as="offset" />
          </mxGeometry>
        </mxCell>
        <mxCell id="QREv3vWo1BiZqHH107UK-6" value=":X" style="shape=umlLifeline;perimeter=lifelinePerimeter;whiteSpace=wrap;html=1;container=1;dropTarget=0;collapsible=0;recursiveResize=0;outlineConnect=0;portConstraint=eastwest;newEdgeStyle={&quot;edgeStyle&quot;:&quot;elbowEdgeStyle&quot;,&quot;elbow&quot;:&quot;vertical&quot;,&quot;curved&quot;:0,&quot;rounded&quot;:0};fontFamily=Helvetica;fontSize=11;fontColor=default;" vertex="1" parent="QREv3vWo1BiZqHH107UK-1">
          <mxGeometry x="20" y="40" width="60" height="290" as="geometry" />
        </mxCell>
        <mxCell id="QREv3vWo1BiZqHH107UK-17" style="edgeStyle=elbowEdgeStyle;shape=connector;curved=0;rounded=0;orthogonalLoop=1;jettySize=auto;elbow=horizontal;html=1;labelBackgroundColor=default;strokeColor=default;fontFamily=Helvetica;fontSize=11;fontColor=default;endArrow=openThin;endFill=0;endSize=12;" edge="1" parent="QREv3vWo1BiZqHH107UK-1">
          <mxGeometry relative="1" as="geometry">
            <mxPoint x="189.5" y="98" as="sourcePoint" />
            <mxPoint x="334.5" y="98" as="targetPoint" />
          </mxGeometry>
        </mxCell>
        <mxCell id="QREv3vWo1BiZqHH107UK-18" value="s" style="edgeLabel;html=1;align=center;verticalAlign=middle;resizable=0;points=[];fontSize=11;fontFamily=Helvetica;fontColor=default;" vertex="1" connectable="0" parent="QREv3vWo1BiZqHH107UK-17">
          <mxGeometry x="0.4414" y="-2" relative="1" as="geometry">
            <mxPoint x="-27" y="-12" as="offset" />
          </mxGeometry>
        </mxCell>
        <mxCell id="QREv3vWo1BiZqHH107UK-25" style="edgeStyle=elbowEdgeStyle;shape=connector;curved=0;rounded=0;orthogonalLoop=1;jettySize=auto;elbow=vertical;html=1;labelBackgroundColor=default;strokeColor=default;fontFamily=Helvetica;fontSize=11;fontColor=default;endArrow=openThin;endFill=0;endSize=12;" edge="1" parent="QREv3vWo1BiZqHH107UK-1">
          <mxGeometry relative="1" as="geometry">
            <mxPoint x="189.5" y="315" as="sourcePoint" />
            <mxPoint x="334.5" y="315" as="targetPoint" />
          </mxGeometry>
        </mxCell>
        <mxCell id="QREv3vWo1BiZqHH107UK-26" value="v" style="edgeLabel;html=1;align=center;verticalAlign=middle;resizable=0;points=[];fontSize=11;fontFamily=Helvetica;fontColor=default;" vertex="1" connectable="0" parent="QREv3vWo1BiZqHH107UK-25">
          <mxGeometry x="0.4276" y="-1" relative="1" as="geometry">
            <mxPoint x="-29" y="-12" as="offset" />
          </mxGeometry>
        </mxCell>
        <mxCell id="QREv3vWo1BiZqHH107UK-7" value=":Y" style="shape=umlLifeline;perimeter=lifelinePerimeter;whiteSpace=wrap;html=1;container=1;dropTarget=0;collapsible=0;recursiveResize=0;outlineConnect=0;portConstraint=eastwest;newEdgeStyle={&quot;edgeStyle&quot;:&quot;elbowEdgeStyle&quot;,&quot;elbow&quot;:&quot;vertical&quot;,&quot;curved&quot;:0,&quot;rounded&quot;:0};fontFamily=Helvetica;fontSize=11;fontColor=default;" vertex="1" parent="QREv3vWo1BiZqHH107UK-1">
          <mxGeometry x="150" y="40" width="80" height="290" as="geometry" />
        </mxCell>
        <mxCell id="QREv3vWo1BiZqHH107UK-8" value=":Z" style="shape=umlLifeline;perimeter=lifelinePerimeter;whiteSpace=wrap;html=1;container=1;dropTarget=0;collapsible=0;recursiveResize=0;outlineConnect=0;portConstraint=eastwest;newEdgeStyle={&quot;edgeStyle&quot;:&quot;elbowEdgeStyle&quot;,&quot;elbow&quot;:&quot;vertical&quot;,&quot;curved&quot;:0,&quot;rounded&quot;:0};fontFamily=Helvetica;fontSize=11;fontColor=default;" vertex="1" parent="QREv3vWo1BiZqHH107UK-1">
          <mxGeometry x="300" y="40" width="70" height="290" as="geometry" />
        </mxCell>
        <mxCell id="QREv3vWo1BiZqHH107UK-9" value="&lt;b&gt;consider&lt;/b&gt; {q, v, w}" style="shape=umlFrame;whiteSpace=wrap;html=1;pointerEvents=0;recursiveResize=0;container=1;collapsible=0;width=130;fontFamily=Helvetica;fontSize=11;fontColor=default;height=20;" vertex="1" parent="QREv3vWo1BiZqHH107UK-1">
          <mxGeometry x="10" y="150" width="260" height="140" as="geometry" />
        </mxCell>
        <mxCell id="QREv3vWo1BiZqHH107UK-19" value="mystate" style="html=1;align=center;verticalAlign=middle;rounded=1;absoluteArcSize=1;arcSize=24;dashed=0;whiteSpace=wrap;fontFamily=Helvetica;fontSize=11;fontColor=default;" vertex="1" parent="QREv3vWo1BiZqHH107UK-1">
          <mxGeometry x="160" y="110" width="60" height="30" as="geometry" />
        </mxCell>
        <mxCell id="QREv3vWo1BiZqHH107UK-24" value="&lt;b&gt;assert&lt;/b&gt;" style="shape=umlFrame;whiteSpace=wrap;html=1;pointerEvents=0;recursiveResize=0;container=1;collapsible=0;width=50;fontFamily=Helvetica;fontSize=11;fontColor=default;height=20;" vertex="1" parent="QREv3vWo1BiZqHH107UK-1">
          <mxGeometry x="20" y="210" width="240" height="70" as="geometry" />
        </mxCell>
        <mxCell id="QREv3vWo1BiZqHH107UK-28" value="{Y.p == 15}" style="text;html=1;align=center;verticalAlign=middle;resizable=0;points=[];autosize=1;strokeColor=none;fillColor=none;fontSize=11;fontFamily=Helvetica;fontColor=default;labelBackgroundColor=default;" vertex="1" parent="QREv3vWo1BiZqHH107UK-24">
          <mxGeometry x="130" y="40" width="80" height="30" as="geometry" />
        </mxCell>
        <mxCell id="QREv3vWo1BiZqHH107UK-16" value="&lt;b&gt;Figure 17.17 Ignore, consider, assert with StateInvariants&lt;/b&gt;" style="text;html=1;align=left;verticalAlign=middle;resizable=0;points=[];autosize=1;strokeColor=none;fillColor=none;fontSize=11;fontFamily=Helvetica;fontColor=default;" vertex="1" parent="1">
          <mxGeometry x="10" y="350" width="320" height="30" as="geometry" />
        </mxCell>
        <mxCell id="XMmrqBLluQMl05FT-xVh-1" value="annotation" parent="0" />
        <mxCell id="XMmrqBLluQMl05FT-xVh-2" value="&lt;i&gt;StateInvariant&lt;/i&gt;" style="text;html=1;align=center;verticalAlign=middle;resizable=0;points=[];autosize=1;strokeColor=none;fillColor=none;fontSize=11;fontFamily=Verdana;fontColor=#FF0000;" vertex="1" parent="XMmrqBLluQMl05FT-xVh-1">
          <mxGeometry x="420" y="120" width="100" height="30" as="geometry" />
        </mxCell>
        <mxCell id="XMmrqBLluQMl05FT-xVh-3" style="shape=connector;rounded=0;orthogonalLoop=1;jettySize=auto;elbow=vertical;html=1;labelBackgroundColor=none;strokeColor=#FF0000;fontFamily=Helvetica;fontSize=11;fontColor=default;endArrow=blockThin;endFill=0;endSize=12;jumpSize=6;" edge="1" parent="XMmrqBLluQMl05FT-xVh-1" source="XMmrqBLluQMl05FT-xVh-2">
          <mxGeometry relative="1" as="geometry">
            <mxPoint x="241" y="133" as="targetPoint" />
            <mxPoint x="449" y="383" as="sourcePoint" />
          </mxGeometry>
        </mxCell>
        <mxCell id="XMmrqBLluQMl05FT-xVh-4" style="shape=connector;rounded=0;orthogonalLoop=1;jettySize=auto;elbow=vertical;html=1;labelBackgroundColor=none;strokeColor=#FF0000;fontFamily=Helvetica;fontSize=11;fontColor=default;endArrow=blockThin;endFill=0;endSize=12;jumpSize=6;exitX=0.02;exitY=0.633;exitDx=0;exitDy=0;exitPerimeter=0;" edge="1" parent="XMmrqBLluQMl05FT-xVh-1" source="XMmrqBLluQMl05FT-xVh-2">
          <mxGeometry relative="1" as="geometry">
            <mxPoint x="232" y="268" as="targetPoint" />
            <mxPoint x="450" y="145" as="sourcePoint" />
          </mxGeometry>
        </mxCell>
      </root>
    </mxGraphModel>
  </diagram>
</mxfile>
